<svg width="313" height="359" viewBox="0 0 313 359" fill="none" xmlns="http://www.w3.org/2000/svg">
<path opacity="0.3" d="M45.5 153.5C45.5 92.1964 95.1964 42.5 156.5 42.5C217.804 42.5 267.5 92.1964 267.5 153.5L267.5 357.5L45.4999 357.5L45.5 153.5Z" stroke="white" stroke-width="3"/>
<path opacity="0.3" d="M1.50009 156.5C1.50011 70.8959 70.896 1.50001 156.5 1.50003C242.104 1.50004 311.5 70.8959 311.5 156.5L311.5 357.5L1.50006 357.5L1.50009 156.5Z" stroke="white" stroke-width="3"/>
<path opacity="0.3" d="M22.5001 156.5C22.5001 82.4938 82.494 22.5 156.5 22.5C230.506 22.5 290.5 82.4939 290.5 156.5L290.5 357.5L22.5001 357.5L22.5001 156.5Z" stroke="white" stroke-width="3"/>
</svg>
